<?xml version="1.0" standalone="no"?>
<!DOCTYPE svg PUBLIC "-//W3C//DTD SVG 20010904//EN"
 "http://www.w3.org/TR/2001/REC-SVG-20010904/DTD/svg10.dtd">
<svg version="1.0" xmlns="http://www.w3.org/2000/svg"
 width="700.000000pt" height="700.000000pt" viewBox="0 0 700.000000 700.000000"
 preserveAspectRatio="xMidYMid meet">
<metadata>
Created by potrace 1.11, written by Peter Selinger 2001-2013
</metadata>
<g transform="translate(0.000000,700.000000) scale(0.100000,-0.100000)"
fill="#000000" stroke="none">
<path d="M0 3500 l0 -3500 3500 0 3500 0 0 3500 0 3500 -3500 0 -3500 0 0
-3500z m1782 1413 l3 -688 115 188 c63 103 269 410 458 682 l343 495 461 0
460 0 -17 -27 c-16 -24 -906 -1273 -958 -1345 l-19 -26 130 -229 c206 -362
842 -1494 842 -1499 0 -2 -212 -3 -470 -2 l-471 3 -303 582 c-166 321 -305
586 -309 589 -3 4 -63 -29 -132 -72 l-125 -79 0 -527 0 -528 -430 0 -430 0 0
1585 0 1585 425 0 425 0 2 -687z m3626 2 c137 -32 287 -123 373 -226 114 -134
222 -382 271 -618 18 -91 21 -137 20 -325 -1 -253 -13 -366 -53 -525 -48 -191
-135 -390 -226 -519 -85 -120 -230 -216 -399 -264 -65 -18 -104 -22 -224 -22
-133 0 -152 2 -225 27 -109 38 -204 96 -290 178 -53 50 -80 69 -99 69 -21 0
-26 -4 -22 -17 18 -60 26 -289 26 -745 0 -504 -1 -519 -19 -513 -10 3 -194 75
-407 159 l-389 153 -3 1582 -2 1581 341 -2 341 -3 55 -152 c49 -135 58 -153
78 -153 15 0 32 14 50 40 42 61 165 173 234 213 54 32 170 78 226 90 52 12
284 6 343 -8z"/>
<path d="M4815 4250 c-96 -38 -143 -105 -186 -266 -18 -64 -23 -116 -27 -279
-5 -225 4 -297 49 -416 24 -62 40 -87 84 -128 71 -67 106 -81 204 -81 70 0 86
4 141 33 79 41 112 86 144 200 83 290 49 745 -66 864 -62 65 -112 87 -207 90
-68 2 -97 -1 -136 -17z"/>
</g>
</svg>
